# WaveFront *.obj file (generated by Cinema 4D)

v -32.077042 33.157558 7.045924
v -30.811300 33.157448 11.975583
v -32.400509 42.359398 12.544032
v -33.723705 42.359509 7.390622
v -28.937679 33.157299 16.707716
v -30.441847 42.359249 17.490953
v -26.647917 33.157265 20.873438
v -28.047937 42.359226 21.846113
v -32.714947 33.157600 1.996511
v -34.390572 42.359562 2.112022
v -32.714947 33.157600 -3.093040
v -34.390572 42.359562 -3.208540
v 28.508877 42.359272 -18.587481
v 26.114967 42.359249 -22.942640
v 26.776760 46.708981 -23.402424
v 29.219893 46.709007 -18.957712
v 30.467537 42.359421 -13.640565
v 31.218767 46.709152 -13.909267
v 31.790735 42.359509 -8.487155
v 32.569107 46.709244 -8.650090
v 32.457600 42.359562 -3.208553
v 33.249657 46.709293 -3.263150
v 32.457600 42.359562 2.112010
v 33.249657 46.709293 2.166613
v 31.790735 42.359509 7.390611
v 32.569107 46.709244 7.553550
v 30.467554 42.359398 12.544026
v 31.218767 46.709129 12.812731
v 28.508896 42.359249 17.490950
v 29.219912 46.708984 17.861181
v -28.736065 46.708981 -23.354511
v -28.073751 42.359249 -22.895691
v -30.441866 42.359272 -18.587477
v -31.152882 46.709007 -18.957706
v -32.400524 42.359421 -13.640559
v -33.151737 46.709152 -13.909259
v -33.723705 42.359509 -8.487143
v -34.502075 46.709244 -8.650076
v 15.914134 28.747309 -27.798622
v 11.284936 28.747461 -29.631481
v 11.557361 33.157471 -30.393093
v 16.289495 33.157322 -28.519482
v 6.462505 28.747557 -30.869688
v 6.627699 33.157570 -31.658825
v 1.522932 28.747604 -31.493698
v 1.578287 33.157612 -32.296734
v -3.455910 28.747604 -31.493698
v -3.511266 33.157612 -32.296734
v -8.395486 28.747557 -30.869688
v -8.560679 33.157570 -31.658825
v -13.217907 28.747461 -29.631462
v -13.490336 33.157471 -30.393084
v -17.847107 28.747309 -27.798607
v -18.222467 33.157322 -28.519463
v -21.922037 28.747280 -25.558758
v -22.388191 33.157288 -26.229700
v -8.560668 33.157547 30.562288
v -3.511255 33.157589 31.200193
v -3.626759 42.359550 32.875820
v -8.905361 42.359497 32.208958
v 1.578298 33.157589 31.200193
v 1.693803 42.359550 32.875820
v 6.627711 33.157547 30.562288
v 6.972404 42.359497 32.208958
v 11.557368 33.157448 29.296547
v 12.125814 42.359398 30.885759
v 16.289499 33.157299 27.422926
v 17.072733 42.359249 28.927099
v 20.455223 33.157265 25.133163
v 21.427893 42.359226 26.533190
v -18.222464 33.157299 27.422945
v -22.343277 33.157265 25.157854
v -21.878111 28.747257 24.486353
v -17.847101 28.747286 26.702072
v 15.914138 28.747286 26.702059
v 19.989071 28.747257 24.462208
v 11.284939 28.747433 28.534914
v 20.410309 33.157288 -26.254391
v 19.945143 28.747280 -25.582901
v 27.004726 33.157299 16.707710
v 24.739635 33.157265 20.828524
v 24.068142 28.747257 20.363352
v 26.283863 28.747292 16.332342
v 6.462517 28.747522 29.773140
v 1.522942 28.747570 30.397150
v -3.455900 28.747570 30.397150
v -8.395473 28.747522 29.773140
v -13.217904 28.747433 28.534933
v -13.490329 33.157448 29.296555
v -26.672607 33.157288 -21.925062
v -28.937698 33.157322 -17.804247
v -23.772732 46.708958 27.221317
v -23.313911 42.359226 26.559004
v -19.005697 42.359249 28.927116
v -19.375929 46.708984 29.638134
v -14.058777 42.359398 30.885778
v -14.327480 46.709129 31.636990
v 26.283850 28.747303 -17.428896
v 24.043999 28.747280 -21.503830
v 24.714947 33.157288 -21.969978
v 27.004707 33.157322 -17.804253
v -19.005701 42.359272 -30.023624
v -23.360861 42.359249 -27.629715
v -23.820642 46.708981 -28.291508
v -19.375933 46.709007 -30.734640
v -14.058782 42.359421 -31.982285
v -14.327487 46.709152 -32.733517
v -8.905373 42.359520 -33.305481
v -9.068311 46.709255 -34.083855
v -3.626771 42.359573 -33.972347
v -3.681372 46.709305 -34.764404
v 1.693791 42.359573 -33.972347
v 1.748391 46.709305 -34.764404
v 6.972392 42.359520 -33.305481
v 7.135328 46.709255 -34.083855
v 12.125809 42.359421 -31.982304
v 12.394512 46.709152 -32.733517
v 17.072729 42.359272 -30.023643
v 17.442961 46.709007 -30.734659
v 21.839764 46.708981 -28.317842
v 21.380943 42.359249 -27.655531
v 28.116705 28.747450 -12.799697
v 28.878328 33.157471 -13.072121
v 29.354927 28.747545 -7.977272
v 30.144073 33.157558 -8.142464
v 29.978939 28.747587 -3.037697
v 30.781977 33.157600 -3.093050
v 29.978939 28.747587 1.941144
v 30.781977 33.157600 1.996500
v 29.354927 28.747534 6.880718
v 30.144073 33.157558 7.045912
v 28.116722 28.747438 11.703147
v 28.878340 33.157448 11.975575
v -28.216831 28.747303 -17.428892
v -30.049692 28.747450 -12.799690
v -30.811310 33.157471 -13.072112
v -31.287899 28.747545 -7.977261
v -32.077042 33.157558 -8.142453
v -31.911909 28.747587 -3.037687
v -31.911909 28.747587 1.941155
v -31.287899 28.747534 6.880730
v -30.049673 28.747438 11.703153
v -28.216820 28.747292 16.332348
v -25.976967 28.747257 20.407278
v 26.140783 42.359226 21.799164
v -26.001112 28.747280 -21.459902
v -9.068297 46.709232 32.987328
v -3.681359 46.709282 33.667881
v 1.748404 46.709282 33.667881
v 7.135343 46.709232 32.987328
v 12.394519 46.709129 31.636990
v 17.442965 46.708984 29.638115
v 21.887674 46.708958 27.194983
v 26.803095 46.708958 22.257984
v -28.709730 46.708958 22.305895
v -31.152863 46.708984 17.861187
v -33.151737 46.709129 12.812741
v -34.502075 46.709244 7.553564
v -35.182629 46.709293 2.166626
v -35.182629 46.709293 -3.263137
# 160 vertices

vn -0.966281 -0.179781 0.184281
vn -0.935469 -0.180281 0.303875
vn -0.889875 -0.181094 0.418687
vn -0.861812 -0.181187 0.473687
vn -0.981781 -0.179594 0.061781
vn -0.981781 -0.179594 -0.061781
vn 0.889750 -0.181063 -0.418969
vn 0.861812 -0.181187 -0.473687
vn 0.889875 -0.181094 -0.418687
vn 0.935406 -0.180281 -0.304094
vn 0.935469 -0.180281 -0.303875
vn 0.966219 -0.179781 -0.184469
vn 0.966281 -0.179781 -0.184281
vn 0.981781 -0.179594 -0.061781
vn 0.981781 -0.179594 0.061781
vn 0.966250 -0.179781 0.184375
vn 0.966281 -0.179781 0.184281
vn 0.935406 -0.180281 0.304094
vn 0.935469 -0.180281 0.303875
vn 0.889750 -0.181063 0.418969
vn 0.889875 -0.181094 0.418687
vn -0.889750 -0.181063 -0.418969
vn -0.889875 -0.181094 -0.418687
vn -0.861812 -0.181187 -0.473687
vn -0.935406 -0.180281 -0.304094
vn -0.935469 -0.180281 -0.303875
vn -0.966250 -0.179781 -0.184375
vn -0.966281 -0.179781 -0.184281
vn 0.418687 -0.181094 -0.889875
vn 0.303875 -0.180281 -0.935469
vn 0.303781 -0.180281 -0.935500
vn 0.418406 -0.181094 -0.890000
vn 0.184281 -0.179781 -0.966281
vn 0.184188 -0.179781 -0.966281
vn 0.061781 -0.179594 -0.981781
vn 0.061687 -0.179594 -0.981781
vn -0.061781 -0.179594 -0.981781
vn -0.061687 -0.179594 -0.981781
vn -0.184281 -0.179781 -0.966281
vn -0.184188 -0.179781 -0.966281
vn -0.303875 -0.180281 -0.935469
vn -0.303781 -0.180281 -0.935500
vn -0.418687 -0.181094 -0.889875
vn -0.418406 -0.181094 -0.890000
vn -0.473687 -0.181187 -0.861812
vn -0.184281 -0.179781 0.966281
vn -0.061781 -0.179594 0.981781
vn 0.061781 -0.179594 0.981781
vn 0.184281 -0.179781 0.966281
vn 0.303875 -0.180281 0.935469
vn 0.418687 -0.181094 0.889875
vn 0.473687 -0.181187 0.861812
vn -0.418406 -0.181094 0.890000
vn -0.473687 -0.181187 0.861812
vn -0.418687 -0.181094 0.889875
vn 0.418406 -0.181094 0.890000
vn 0.303781 -0.180281 0.935500
vn 0.473687 -0.181187 -0.861812
vn 0.890000 -0.181094 0.418406
vn 0.861812 -0.181187 0.473687
vn 0.184188 -0.179781 0.966281
vn 0.061687 -0.179594 0.981781
vn -0.061687 -0.179594 0.981781
vn -0.184188 -0.179781 0.966281
vn -0.303875 -0.180281 0.935469
vn -0.303781 -0.180281 0.935500
vn -0.418969 -0.181063 0.889750
vn 0.890000 -0.181094 -0.418406
vn -0.418969 -0.181063 -0.889750
vn -0.304094 -0.180281 -0.935406
vn -0.184469 -0.179781 -0.966219
vn 0.184375 -0.179781 -0.966250
vn 0.304094 -0.180281 -0.935406
vn 0.418969 -0.181063 -0.889750
vn 0.935500 -0.180281 -0.303781
vn 0.966281 -0.179781 -0.184188
vn 0.981781 -0.179594 -0.061687
vn 0.981781 -0.179594 0.061687
vn 0.966281 -0.179781 0.184188
vn 0.935500 -0.180281 0.303781
vn -0.935500 -0.180281 -0.303781
vn -0.890000 -0.181094 -0.418406
vn -0.966281 -0.179781 -0.184188
vn -0.981781 -0.179594 -0.061687
vn -0.981781 -0.179594 0.061687
vn -0.966281 -0.179781 0.184188
vn -0.935500 -0.180281 0.303781
vn -0.890000 -0.181094 0.418406
vn -0.184375 -0.179781 0.966250
vn 0.184469 -0.179781 0.966219
vn 0.304094 -0.180281 0.935406
vn 0.418969 -0.181063 0.889750
vn -0.889750 -0.181063 0.418969
vn -0.935406 -0.180281 0.304094
vn -0.966219 -0.179781 0.184469
# 95 normals

vt 0.668697 0.757833 0.000000
vt 0.781541 0.757833 0.000000
vt 0.781541 0.245523 0.000000
vt 0.668697 0.245523 0.000000
vt 0.894385 0.757833 0.000000
vt 0.894385 0.245523 0.000000
vt 1.000000 0.757833 0.000000
vt 1.000000 0.245523 0.000000
vt 0.555853 0.757833 0.000000
vt 0.555853 0.245523 0.000000
vt 0.443009 0.757833 0.000000
vt 0.443009 0.245523 0.000000
vt 0.894385 1.000000 0.000000
vt 1.000000 1.000000 0.000000
vt 0.781541 1.000000 0.000000
vt 0.668697 1.000000 0.000000
vt 0.555853 1.000000 0.000000
vt 0.443009 1.000000 0.000000
vt 0.330164 1.000000 0.000000
vt 0.330164 0.757833 0.000000
vt 0.217320 1.000000 0.000000
vt 0.217320 0.757833 0.000000
vt 0.104476 1.000000 0.000000
vt 0.104476 0.757833 0.000000
vt 0.000000 0.757833 0.000000
vt 0.000000 1.000000 0.000000
vt 0.104476 0.245523 0.000000
vt 0.217320 0.245523 0.000000
vt 0.217320 0.000000 0.000000
vt 0.104476 0.000000 0.000000
vt 0.330164 0.245523 0.000000
vt 0.330164 0.000000 0.000000
vt 0.443009 0.000000 0.000000
vt 0.555853 0.000000 0.000000
vt 0.668697 0.000000 0.000000
vt 0.781541 0.000000 0.000000
vt 0.894385 0.000000 0.000000
vt 1.000000 0.000000 0.000000
vt 0.000000 0.000000 0.000000
vt 0.000001 0.245523 0.000000
# 40 texture coordinates

o mainSquareTowerScreen
usemtl default
f 1/4/1 2/3/2 3/2/2 4/1/1
f 2/3/2 5/6/3 6/5/3 3/2/2
f 5/6/3 7/8/4 8/7/4 6/5/3
f 9/10/5 1/4/1 4/1/1 10/9/5
f 11/12/6 9/10/5 10/9/5 12/11/6
f 13/5/9 14/7/8 15/14/8 16/13/7
f 17/2/11 13/5/9 16/13/7 18/15/10
f 19/1/13 17/2/11 18/15/10 20/16/12
f 21/9/14 19/1/13 20/16/12 22/17/14
f 23/11/15 21/9/14 22/17/14 24/18/15
f 25/20/17 23/11/15 24/18/15 26/19/16
f 27/22/19 25/20/17 26/19/16 28/21/18
f 29/24/21 27/22/19 28/21/18 30/23/20
f 31/26/24 32/25/24 33/24/23 34/23/22
f 33/24/23 35/22/26 36/21/25 34/23/22
f 35/22/26 37/20/28 38/19/27 36/21/25
f 39/30/32 40/29/31 41/28/30 42/27/29
f 40/29/31 43/32/34 44/31/33 41/28/30
f 43/32/34 45/33/36 46/12/35 44/31/33
f 45/33/36 47/34/38 48/10/37 46/12/35
f 47/34/38 49/35/40 50/4/39 48/10/37
f 49/35/40 51/36/42 52/3/41 50/4/39
f 51/36/42 53/37/44 54/6/43 52/3/41
f 53/37/44 55/38/45 56/8/45 54/6/43
f 57/31/46 58/12/47 59/11/47 60/20/46
f 58/12/47 61/10/48 62/9/48 59/11/47
f 61/10/48 63/4/49 64/1/49 62/9/48
f 63/4/49 65/3/50 66/2/50 64/1/49
f 65/3/50 67/6/51 68/5/51 66/2/50
f 67/6/51 69/8/52 70/7/52 68/5/51
f 71/27/55 72/40/54 73/39/54 74/30/53
f 75/37/56 76/38/52 69/8/52 67/6/51
f 77/36/57 75/37/56 67/6/51 65/3/50
f 42/27/29 78/40/58 79/39/58 39/30/32
f 80/27/21 81/40/60 82/39/60 83/30/59
f 84/35/61 77/36/57 65/3/50 63/4/49
f 85/34/62 84/35/61 63/4/49 61/10/48
f 86/33/63 85/34/62 61/10/48 58/12/47
f 87/32/64 86/33/63 58/12/47 57/31/46
f 88/29/66 87/32/64 57/31/46 89/28/65
f 74/30/53 88/29/66 89/28/65 71/27/55
f 33/24/23 32/25/24 90/40/24 91/27/23
f 92/26/54 93/25/54 94/24/55 95/23/67
f 94/24/55 96/22/65 97/21/66 95/23/67
f 98/37/68 99/38/8 100/8/8 101/6/9
f 102/5/43 103/7/45 104/14/45 105/13/69
f 106/2/41 102/5/43 105/13/69 107/15/70
f 108/1/39 106/2/41 107/15/70 109/16/71
f 110/9/37 108/1/39 109/16/71 111/17/37
f 112/11/35 110/9/37 111/17/37 113/18/35
f 114/20/33 112/11/35 113/18/35 115/19/72
f 116/22/30 114/20/33 115/19/72 117/21/73
f 118/24/29 116/22/30 117/21/73 119/23/74
f 120/26/58 121/25/58 118/24/29 119/23/74
f 122/36/75 98/37/68 101/6/9 123/3/11
f 124/35/76 122/36/75 123/3/11 125/4/13
f 126/34/77 124/35/76 125/4/13 127/10/14
f 128/33/78 126/34/77 127/10/14 129/12/15
f 130/32/79 128/33/78 129/12/15 131/31/17
f 132/29/80 130/32/79 131/31/17 133/28/19
f 83/30/59 132/29/80 133/28/19 80/27/21
f 94/24/55 93/25/54 72/40/54 71/27/55
f 71/27/55 89/28/65 96/22/65 94/24/55
f 89/28/65 57/31/46 60/20/46 96/22/65
f 54/6/43 56/8/45 103/7/45 102/5/43
f 52/3/41 54/6/43 102/5/43 106/2/41
f 50/4/39 52/3/41 106/2/41 108/1/39
f 48/10/37 50/4/39 108/1/39 110/9/37
f 46/12/35 48/10/37 110/9/37 112/11/35
f 44/31/33 46/12/35 112/11/35 114/20/33
f 41/28/30 44/31/33 114/20/33 116/22/30
f 42/27/29 41/28/30 116/22/30 118/24/29
f 118/24/29 121/25/58 78/40/58 42/27/29
f 134/30/82 135/29/81 136/28/26 91/27/23
f 135/29/81 137/32/83 138/31/28 136/28/26
f 137/32/83 139/33/84 11/12/6 138/31/28
f 139/33/84 140/34/85 9/10/5 11/12/6
f 140/34/85 141/35/86 1/4/1 9/10/5
f 141/35/86 142/36/87 2/3/2 1/4/1
f 142/36/87 143/37/88 5/6/3 2/3/2
f 143/37/88 144/38/4 7/8/4 5/6/3
f 29/24/21 145/25/60 81/40/60 80/27/21
f 80/27/21 133/28/19 27/22/19 29/24/21
f 133/28/19 131/31/17 25/20/17 27/22/19
f 131/31/17 129/12/15 23/11/15 25/20/17
f 129/12/15 127/10/14 21/9/14 23/11/15
f 127/10/14 125/4/13 19/1/13 21/9/14
f 125/4/13 123/3/11 17/2/11 19/1/13
f 123/3/11 101/6/9 13/5/9 17/2/11
f 101/6/9 100/8/8 14/7/8 13/5/9
f 91/27/23 90/40/24 146/39/24 134/30/82
f 96/22/65 60/20/46 147/19/89 97/21/66
f 60/20/46 59/11/47 148/18/47 147/19/89
f 59/11/47 62/9/48 149/17/48 148/18/47
f 62/9/48 64/1/49 150/16/90 149/17/48
f 64/1/49 66/2/50 151/15/91 150/16/90
f 66/2/50 68/5/51 152/13/92 151/15/91
f 68/5/51 70/7/52 153/14/52 152/13/92
f 91/27/23 136/28/26 35/22/26 33/24/23
f 136/28/26 138/31/28 37/20/28 35/22/26
f 138/31/28 11/12/6 12/11/6 37/20/28
f 154/26/60 145/25/60 29/24/21 30/23/20
f 6/5/3 8/7/4 155/14/4 156/13/93
f 3/2/2 6/5/3 156/13/93 157/15/94
f 4/1/1 3/2/2 157/15/94 158/16/95
f 10/9/5 4/1/1 158/16/95 159/17/5
f 12/11/6 10/9/5 159/17/5 160/18/6
f 37/20/28 12/11/6 160/18/6 38/19/27

