<svg xmlns="http://www.w3.org/2000/svg" width="13.5" height="13.5" viewBox="0 0 13.5 13.5"><g transform="translate(-251.452 -704.092)"><path d="M489.954,1320.452h5.436a1.875,1.875,0,0,1,1.375.614,2.185,2.185,0,0,1,.57,1.483v4.19a5.953,5.953,0,0,1-1.554,4.04,5.112,5.112,0,0,1-3.747,1.673h-4.754a1.875,1.875,0,0,1-1.375-.614,2.182,2.182,0,0,1-.569-1.482v-7.806a2.183,2.183,0,0,1,.569-1.483,1.876,1.876,0,0,1,1.375-.614h0" transform="translate(-233.132 -615.61)" fill="none" stroke="#fff" stroke-linecap="round" stroke-linejoin="round" stroke-width="1.5"/><path d="M491.734,1328.176h4.56" transform="translate(-235.812 -618.403)" fill="none" stroke="#fff" stroke-linecap="round" stroke-linejoin="round" stroke-width="1.5"/><path d="M491.734,1333.043h2.28" transform="translate(-235.77 -620.162)" fill="none" stroke="#fff" stroke-linecap="round" stroke-linejoin="round" stroke-width="1.5"/></g></svg>