<svg xmlns="http://www.w3.org/2000/svg" width="12" height="10.357" viewBox="0 0 12 10.357"><path d="M271.082,94.193l-4.26-4.118a.607.607,0,0,1,0-.879.659.659,0,0,1,.909,0l4.714,4.557a.607.607,0,0,1,0,.878l-4.714,4.557a.658.658,0,0,1-.909,0,.606.606,0,0,1,0-.878l4.26-4.117" transform="translate(-260.634 -89.014)" fill="#00efff"/><path d="M271.082,94.193l-4.26-4.118a.607.607,0,0,1,0-.879.659.659,0,0,1,.909,0l4.714,4.557a.607.607,0,0,1,0,.878l-4.714,4.557a.658.658,0,0,1-.909,0,.606.606,0,0,1,0-.878l4.26-4.117" transform="translate(-266.634 -89.014)" fill="#00efff"/></svg>