<svg xmlns="http://www.w3.org/2000/svg" width="17.5" height="17.5" viewBox="0 0 17.5 17.5"><g transform="translate(0.75 0.75)"><path d="M401.352,1332.547a3.557,3.557,0,0,1-2.469.876,3.682,3.682,0,0,1-2.469-.818" transform="translate(-390.883 -1322.473)" fill="none" stroke="#fff" stroke-linecap="round" stroke-linejoin="round" stroke-width="1.5"/><path d="M397.237,1327.349a1.185,1.185,0,1,1-1.185-1.185,1.185,1.185,0,0,1,1.185,1.185" transform="translate(-390.446 -1321.095)" fill="#fff"/><path d="M403.425,1327.349a1.185,1.185,0,1,1-1.185-1.185,1.185,1.185,0,0,1,1.185,1.185" transform="translate(-391.847 -1321.095)" fill="#fff"/><path d="M404.006,1323.5a7.937,7.937,0,0,1,1.145,4.111h0a8.024,8.024,0,0,1-8,8h0a8.023,8.023,0,0,1-8-8h0a8.024,8.024,0,0,1,8-8h0a7.937,7.937,0,0,1,4.415,1.338" transform="translate(-389.151 -1319.611)" fill="none" stroke="#fff" stroke-linecap="round" stroke-linejoin="round" stroke-width="1.5"/></g></svg>