# Blender v3.2.1 OBJ File: ''
# www.blender.org
mtllib venueGeelyInsideVideo.mtl
o venueGeelyInsideVideo_1_网格.011
v -19.529999 7.110035 39.406326
v -19.891953 7.161491 39.406326
v -20.243277 7.250221 39.406326
v -20.563278 7.373950 39.406326
v 1.599395 18.653641 39.406330
v -0.494298 19.737499 39.406330
v -0.494298 7.093616 39.406326
v 1.599395 8.177475 39.406326
v -19.170574 19.737499 39.406330
v -21.264267 18.653641 39.406330
v -21.264267 8.177475 39.406326
v -19.170574 7.093616 39.406326
v 1.576302 18.813597 39.406330
v 1.505660 18.970823 39.406330
v 1.371562 19.138823 39.406330
v 1.167537 19.305780 39.406330
v 0.898406 19.457169 39.406330
v 0.578404 19.580896 39.406330
v 0.227081 19.669624 39.406330
v -0.134874 19.721081 39.406330
v -0.134874 7.110035 39.406326
v 0.227081 7.161491 39.406326
v 0.578404 7.250221 39.406326
v 0.898406 7.373950 39.406326
v 1.167537 7.525335 39.406326
v 1.371562 7.692295 39.406326
v 1.505660 7.860294 39.406326
v 1.576302 8.017519 39.406326
v -19.529999 19.721081 39.406330
v -19.891953 19.669624 39.406330
v -20.243277 19.580896 39.406330
v -20.563278 19.457169 39.406330
v -20.832409 19.305780 39.406330
v -21.036434 19.138823 39.406330
v -21.170532 18.970823 39.406330
v -21.241175 18.813597 39.406330
v -21.241175 8.017519 39.406326
v -21.170532 7.860294 39.406326
v -21.036434 7.692295 39.406326
v -20.832409 7.525335 39.406326
vt 0.076111 0.998253
vt 0.060296 0.994187
vt 0.044946 0.987177
vt 0.030964 0.977401
vt 0.019204 0.965440
vt 0.010290 0.952249
vt 0.004431 0.938975
vt 0.001344 0.926552
vt 0.000335 0.913914
vt 0.000335 0.086190
vt 0.001344 0.073552
vt 0.004431 0.061130
vt 0.010290 0.047856
vt 0.019204 0.034665
vt 0.030964 0.022704
vt 0.044946 0.012928
vt 0.060296 0.005917
vt 0.076111 0.001852
vt 0.091816 0.000554
vt 0.907850 0.000554
vt 0.923555 0.001852
vt 0.939370 0.005917
vt 0.954720 0.012928
vt 0.968702 0.022704
vt 0.980462 0.034665
vt 0.989376 0.047856
vt 0.995235 0.061130
vt 0.998322 0.073552
vt 0.999331 0.086190
vt 0.999331 0.913914
vt 0.998322 0.926552
vt 0.995235 0.938975
vt 0.989376 0.952249
vt 0.980462 0.965440
vt 0.968702 0.977401
vt 0.954720 0.987177
vt 0.939370 0.994187
vt 0.923555 0.998253
vt 0.907850 0.999550
vt 0.091816 0.999550
vn -0.0000 0.0000 -1.0000
usemtl None
s 1
f 20/1/1 19/2/1 18/3/1 17/4/1 16/5/1 15/6/1 14/7/1 13/8/1 5/9/1 8/10/1 28/11/1 27/12/1 26/13/1 25/14/1 24/15/1 23/16/1 22/17/1 21/18/1 7/19/1 12/20/1 1/21/1 2/22/1 3/23/1 4/24/1 40/25/1 39/26/1 38/27/1 37/28/1 11/29/1 10/30/1 36/31/1 35/32/1 34/33/1 33/34/1 32/35/1 31/36/1 30/37/1 29/38/1 9/39/1 6/40/1
