<svg xmlns="http://www.w3.org/2000/svg" width="20.011" height="19.999" viewBox="0 0 20.011 19.999"><path d="M113.407,84.172a.264.264,0,0,0,.269-.269V78.95a.331.331,0,0,0-.082-.2,6.966,6.966,0,0,1,12.266.012.276.276,0,0,0-.082.187V83.9a.264.264,0,0,0,.269.269,2.767,2.767,0,0,0,2.792-2.745,2.727,2.727,0,0,0-1.355-2.348,8.323,8.323,0,0,0-15.549,0,2.756,2.756,0,0,0-1.343,2.348A2.8,2.8,0,0,0,113.407,84.172Z" transform="translate(-109.751 -73.728)" fill="#fff"/><path d="M89.288,632.686a.265.265,0,0,0-.3.047,7.858,7.858,0,0,1-10.56.012.286.286,0,0,0-.3-.047,7.512,7.512,0,0,0-4.392,6.939A.264.264,0,0,0,74,639.9H93.47a.264.264,0,0,0,.269-.269A7.532,7.532,0,0,0,89.288,632.686Zm2.956,5.9H75.282a6.229,6.229,0,0,1,2.956-4.287A8.973,8.973,0,0,0,83.809,636a9.3,9.3,0,0,0,5.491-1.858A6.171,6.171,0,0,1,92.244,638.585Z" transform="translate(-73.728 -619.906)" fill="#fff"/><path d="M264.82,182.784a5.637,5.637,0,1,0,5.736,5.631A5.7,5.7,0,0,0,264.82,182.784Zm4.3,5.619a4.3,4.3,0,0,1-8.6,0,4.315,4.315,0,0,1,4.3-4.206A4.261,4.261,0,0,1,269.118,188.4Z" transform="translate(-254.843 -180.296)" fill="#fff"/></svg>