<svg xmlns="http://www.w3.org/2000/svg" xmlns:xlink="http://www.w3.org/1999/xlink" width="26" height="26" viewBox="0 0 26 26"><defs><filter id="a" x="0" y="0" width="26" height="26" filterUnits="userSpaceOnUse"><feOffset input="SourceAlpha"/><feGaussianBlur stdDeviation="1" result="b"/><feFlood flood-color="#fff"/><feComposite operator="in" in2="b"/><feComposite in="SourceGraphic"/></filter></defs><g transform="translate(-176 -92)"><circle cx="10" cy="10" r="10" transform="translate(179 95)" fill="#262626"/><g transform="matrix(1, 0, 0, 1, 176, 92)" filter="url(#a)"><g transform="translate(3 3)" fill="none" stroke="#fff" stroke-width="1"><circle cx="10" cy="10" r="10" stroke="none"/><circle cx="10" cy="10" r="9.5" fill="none"/></g></g><path d="M29.589,28.992l-3.279-3.279a.422.422,0,1,0-.6.6l3.279,3.279-3.279,3.279a.422.422,0,0,0,.6.6l3.279-3.28,3.279,3.28a.422.422,0,1,0,.6-.6l-3.28-3.279,3.28-3.279a.422.422,0,1,0-.6-.6l-3.279,3.279Z" transform="translate(159.411 75.411)" fill="#fff"/></g></svg>