<svg id="组件_109_1" data-name="组件 109 – 1" xmlns="http://www.w3.org/2000/svg" width="16.215" height="16.215" viewBox="0 0 16.215 16.215">
  <path id="路径_2143" data-name="路径 2143" d="M12.8,20.908A8.108,8.108,0,1,0,24.421,13.6a.624.624,0,0,0-.541,1.124,6.863,6.863,0,1,1-2.973-.676.624.624,0,0,0,0-1.247A8.117,8.117,0,0,0,12.8,20.908Z" transform="translate(-12.8 -12.8)" fill="#00EFFF"/>
  <path id="路径_2144" data-name="路径 2144" d="M461.632,700.019m-.832,0a.832.832,0,1,0,.832-.832A.832.832,0,0,0,460.8,700.019Z" transform="translate(-453.524 -688.039)" fill="#00EFFF"/>
  <path id="路径_2145" data-name="路径 2145" d="M474.224,190.25a.624.624,0,0,0,.624-.624v-4.989a.624.624,0,1,0-1.247,0v4.989A.624.624,0,0,0,474.224,190.25Z" transform="translate(-466.116 -181.233)" fill="#00EFFF"/>
</svg>
