# Blender v3.2.1 OBJ File: ''
# www.blender.org
mtllib venueHondaInsideVideo.mtl
o venueHondaInsideVideo_3_网格.058
v -22.505068 2.137017 14.056313
v -22.505068 12.684280 14.056313
v -22.720287 2.137017 13.656374
v -22.720287 12.684280 13.656374
v -23.453810 2.137018 12.028151
v -23.453810 12.684280 12.028151
v -24.067970 2.137018 10.351007
v -24.067970 12.684280 10.351007
v -24.569031 2.137018 8.636688
v -24.569031 12.684280 8.636688
v -24.944401 2.137019 6.890687
v -24.944401 12.684281 6.890689
v -25.197495 2.137019 5.122236
v -25.197495 12.684281 5.122238
v -25.333843 2.137019 3.341106
v -25.333843 12.684282 3.341108
v -25.339884 2.137019 1.554680
v -25.339884 12.684282 1.554682
v -25.227898 2.137020 -0.228650
v -25.227898 12.684282 -0.228648
v -24.997679 2.137020 -1.999829
v -24.997679 12.684282 -1.999827
v -24.636114 2.137020 -3.748829
v -24.636114 12.684282 -3.748827
v -24.159002 2.137021 -5.470221
v -24.159002 12.684283 -5.470220
v -24.007381 2.137021 -5.898597
v -24.007381 12.684283 -5.898595
vt 0.002386 0.982207
vt 0.002386 0.664099
vt 0.022656 0.664099
vt 0.022656 0.982207
vt 0.104177 0.664099
vt 0.104177 0.982207
vt 0.187616 0.664099
vt 0.187616 0.982207
vt 0.272443 0.664099
vt 0.272443 0.982207
vt 0.358356 0.664099
vt 0.358356 0.982207
vt 0.444883 0.664099
vt 0.444883 0.982207
vt 0.531610 0.664099
vt 0.531610 0.982207
vt 0.618119 0.664099
vt 0.618119 0.982207
vt 0.704022 0.664099
vt 0.704022 0.982207
vt 0.788937 0.664099
vt 0.788937 0.982207
vt 0.872298 0.664099
vt 0.872298 0.982207
vt 0.953883 0.664099
vt 0.953883 0.982207
vt 0.974187 0.664099
vt 0.974187 0.982207
vn 0.8806 0.0000 -0.4739
vn 0.8967 0.0000 -0.4426
vn 0.9260 0.0000 -0.3776
vn 0.9500 0.0000 -0.3124
vn 0.9694 -0.0000 -0.2455
vn 0.9844 0.0000 -0.1760
vn 0.9940 0.0000 -0.1091
vn 0.9992 -0.0000 -0.0399
vn 0.9996 -0.0000 0.0297
vn 0.9954 -0.0000 0.0958
vn 0.9862 -0.0000 0.1658
vn 0.9720 0.0000 0.2349
vn 0.9538 0.0000 0.3006
vn 0.9427 0.0000 0.3337
usemtl None
s 1
f 2/1/1 1/2/1 3/3/2 4/4/2
f 4/4/2 3/3/2 5/5/3 6/6/3
f 6/6/3 5/5/3 7/7/4 8/8/4
f 8/8/4 7/7/4 9/9/5 10/10/5
f 10/10/5 9/9/5 11/11/6 12/12/6
f 12/12/6 11/11/6 13/13/7 14/14/7
f 14/14/7 13/13/7 15/15/8 16/16/8
f 16/16/8 15/15/8 17/17/9 18/18/9
f 18/18/9 17/17/9 19/19/10 20/20/10
f 20/20/10 19/19/10 21/21/11 22/22/11
f 22/22/11 21/21/11 23/23/12 24/24/12
f 24/24/12 23/23/12 25/25/13 26/26/13
f 26/26/13 25/25/13 27/27/14 28/28/14
o venueHondaInsideVideo_2_网格.059
v -7.048991 12.684278 26.877748
v -7.048991 2.137015 26.877748
v -6.614932 12.684278 27.014036
v -6.614932 2.137015 27.014036
v -4.878376 12.684278 27.435461
v -4.878376 2.137015 27.435461
v -3.118435 12.684278 27.741514
v -3.118435 2.137015 27.741514
v -1.340909 12.684278 27.917280
v -1.340909 2.137015 27.917280
v 0.444530 12.684278 27.975286
v 0.444530 2.137015 27.975286
v 2.229132 12.684278 27.908716
v 2.229132 2.137015 27.908716
v 4.004345 12.684278 27.712542
v 4.004345 2.137015 27.712542
v 5.762599 12.684278 27.398520
v 5.762599 2.137015 27.398520
v 7.493443 12.684278 26.958712
v 7.493443 2.137015 26.958712
v 9.189479 12.684278 26.398096
v 9.189479 2.137015 26.398096
v 10.844436 12.684278 25.726412
v 10.844436 2.137015 25.726412
v 12.445308 12.684278 24.934568
v 12.445308 2.137015 24.934568
v 12.838082 12.684278 24.705927
v 12.838082 2.137016 24.705927
vt 0.953293 0.651256
vt 0.953293 0.333147
vt 0.973628 0.333147
vt 0.973628 0.651256
vt 0.871736 0.651256
vt 0.871736 0.333147
vt 0.788414 0.651256
vt 0.788414 0.333147
vt 0.703553 0.651256
vt 0.703553 0.333147
vt 0.617703 0.651256
vt 0.617703 0.333147
vt 0.531209 0.651256
vt 0.531209 0.333147
vt 0.444494 0.651256
vt 0.444494 0.333147
vt 0.357978 0.651256
vt 0.357978 0.333147
vt 0.272106 0.651256
vt 0.272106 0.333147
vt 0.187297 0.651256
vt 0.187297 0.333147
vt 0.103871 0.651256
vt 0.103871 0.333147
vt 0.022414 0.651256
vt 0.022414 0.333147
vt 0.002137 0.651256
vt 0.002137 0.333147
vn 0.2678 0.0000 -0.9635
vn 0.2996 0.0000 -0.9541
vn 0.2037 0.0000 -0.9790
vn 0.1350 0.0000 -0.9909
vn 0.0655 0.0000 -0.9979
vn -0.0024 0.0000 -1.0000
vn -0.0736 0.0000 -0.9973
vn -0.1429 0.0000 -0.9897
vn -0.2112 0.0000 -0.9774
vn -0.2802 0.0000 -0.9599
vn -0.3451 0.0000 -0.9385
vn -0.4100 0.0000 -0.9121
vn -0.4735 0.0000 -0.8808
vn -0.5031 0.0000 -0.8642
usemtl None
s 1
f 31/29/15 32/30/15 30/31/16 29/32/16
f 33/33/17 34/34/17 32/30/15 31/29/15
f 35/35/18 36/36/18 34/34/17 33/33/17
f 37/37/19 38/38/19 36/36/18 35/35/18
f 39/39/20 40/40/20 38/38/19 37/37/19
f 41/41/21 42/42/21 40/40/20 39/39/20
f 43/43/22 44/44/22 42/42/21 41/41/21
f 45/45/23 46/46/23 44/44/22 43/43/22
f 47/47/24 48/48/24 46/46/23 45/45/23
f 49/49/25 50/50/25 48/48/24 47/47/24
f 51/51/26 52/52/26 50/50/25 49/49/25
f 53/53/27 54/54/27 52/52/26 51/51/26
f 55/55/28 56/56/28 54/54/27 53/53/27
o venueHondaInsideVideo_1_网格.060
v 25.899158 12.684282 4.194875
v 25.899158 2.137019 4.194873
v 25.938690 12.684282 3.741644
v 25.938690 2.137019 3.741642
v 25.975941 12.684282 1.955071
v 25.975941 2.137019 1.955070
v 25.895493 12.684282 0.170530
v 25.895493 2.137020 0.170528
v 25.684025 12.684282 -1.603103
v 25.684025 2.137020 -1.603105
v 25.355862 12.684282 -3.359084
v 25.355862 2.137020 -3.359086
v 24.906227 12.684283 -5.087396
v 24.906227 2.137021 -5.087397
v 24.332066 12.684283 -6.778610
v 24.332066 2.137021 -6.778611
v 23.646473 12.684284 -8.427861
v 23.646473 2.137021 -8.427863
v 22.843964 12.684284 -10.023239
v 22.843964 2.137021 -10.023240
v 21.930984 12.684284 -11.558588
v 21.930984 2.137022 -11.558590
v 20.918400 12.684284 -13.029884
v 20.918400 2.137022 -13.029886
v 19.800144 12.684284 -14.422472
v 19.800144 2.137022 -14.422474
v 19.492218 12.684284 -14.756739
v 19.492218 2.137022 -14.756741
vt 0.953105 0.322492
vt 0.953105 0.004384
vt 0.973440 0.004384
vt 0.973440 0.322492
vt 0.871548 0.322492
vt 0.871548 0.004384
vt 0.788226 0.322492
vt 0.788226 0.004384
vt 0.703365 0.322492
vt 0.703365 0.004384
vt 0.617514 0.322492
vt 0.617514 0.004384
vt 0.531021 0.322492
vt 0.531021 0.004384
vt 0.444306 0.322492
vt 0.444306 0.004384
vt 0.357790 0.322492
vt 0.357790 0.004384
vt 0.271918 0.322492
vt 0.271918 0.004384
vt 0.187109 0.322492
vt 0.187109 0.004384
vt 0.103682 0.322492
vt 0.103682 0.004384
vt 0.022226 0.322492
vt 0.022226 0.004384
vt 0.001949 0.322492
vt 0.001949 0.004384
vn -0.9985 0.0000 -0.0539
vn -0.9962 0.0000 -0.0869
vn -0.9999 0.0000 0.0121
vn -0.9967 0.0000 0.0818
vn -0.9885 0.0000 0.1511
vn -0.9760 -0.0000 0.2179
vn -0.9580 -0.0000 0.2868
vn -0.9357 -0.0000 0.3529
vn -0.9090 0.0000 0.4169
vn -0.8770 0.0000 0.4805
vn -0.8421 -0.0000 0.5393
vn -0.8023 -0.0000 0.5969
vn -0.7580 -0.0000 0.6522
vn -0.7355 -0.0000 0.6775
usemtl None
s 1
f 59/57/29 60/58/29 58/59/30 57/60/30
f 61/61/31 62/62/31 60/58/29 59/57/29
f 63/63/32 64/64/32 62/62/31 61/61/31
f 65/65/33 66/66/33 64/64/32 63/63/32
f 67/67/34 68/68/34 66/66/33 65/65/33
f 69/69/35 70/70/35 68/68/34 67/67/34
f 71/71/36 72/72/36 70/70/35 69/69/35
f 73/73/37 74/74/37 72/72/36 71/71/36
f 75/75/38 76/76/38 74/74/37 73/73/37
f 77/77/39 78/78/39 76/76/38 75/75/38
f 79/79/40 80/80/40 78/78/39 77/77/39
f 81/81/41 82/82/41 80/80/40 79/79/40
f 83/83/42 84/84/42 82/82/41 81/81/41
