# Blender v3.2.1 OBJ File: ''
# www.blender.org
mtllib venueChanganInsideVideo.mtl
o venueChanganInsideVideo
v 25.470398 1.046373 22.657663
v 24.721542 18.644997 21.991241
v 26.659111 18.644867 19.592901
v 27.470434 1.046504 20.189453
v 23.249964 1.046244 24.929556
v 22.569494 18.645126 24.199678
v 20.828247 1.046116 26.985596
v 20.221434 18.645256 26.199160
v 18.226067 1.045988 28.808073
v 17.697498 18.645386 27.972401
v 15.465798 1.045862 30.381277
v 15.019343 18.645510 29.504053
v 12.571168 1.045737 31.691628
v 12.209950 18.645636 30.780830
v 9.567058 1.045614 32.727779
v 9.293428 18.645760 31.791603
v 6.479294 1.045491 33.480743
v 6.294830 18.645884 32.527531
v 3.334427 1.045370 33.943932
v 3.239915 18.646006 32.982090
v 0.159510 1.045249 34.097805
v 0.154951 18.646126 33.135754
v -3.158871 1.045125 33.948185
v -3.070243 18.646252 32.994812
v 0.015136 18.646132 33.142815
v 0.015632 1.045243 34.104683
v -6.304195 1.045007 33.497837
v -6.128023 18.646370 32.561142
v -9.393297 1.044890 32.757717
v -9.131905 18.646490 31.845661
v -12.399630 1.044774 31.734325
v -12.056051 18.646605 30.854589
v -15.297365 1.044659 30.436615
v -14.875326 18.646721 29.596525
v -18.061623 1.044546 28.875868
v -17.565493 18.646837 28.082342
v -20.668661 1.044434 27.065599
v -20.103411 18.646952 26.325094
v -23.096104 1.044322 25.021469
v -22.467258 18.647064 24.339916
v -25.323116 1.044211 22.761135
v -24.636707 18.647175 22.143900
v -27.330576 1.044102 20.304077
v -26.593071 18.647285 19.755926
vt 0.100000 0.000000
vt 0.100000 1.000000
vt 0.000000 1.000000
vt 0.000000 0.000000
vt 0.200000 0.000000
vt 0.200000 1.000000
vt 0.300000 0.000000
vt 0.300000 1.000000
vt 0.400000 0.000000
vt 0.400000 1.000000
vt 0.500000 0.000000
vt 0.500000 1.000000
vt 0.600000 0.000000
vt 0.600000 1.000000
vt 0.700000 0.000000
vt 0.700000 1.000000
vt 0.800000 0.000000
vt 0.800000 1.000000
vt 0.900000 0.000000
vt 0.900000 1.000000
vt 1.000000 0.000000
vt 1.000000 1.000000
vt 0.100000 0.000000
vt 0.100000 1.000000
vt 0.000000 1.000000
vt 0.000000 0.000000
vt 0.200000 0.000000
vt 0.200000 1.000000
vt 0.300000 0.000000
vt 0.300000 1.000000
vt 0.400000 0.000000
vt 0.400000 1.000000
vt 0.500000 0.000000
vt 0.500000 1.000000
vt 0.600000 0.000000
vt 0.600000 1.000000
vt 0.700000 0.000000
vt 0.700000 1.000000
vt 0.800000 0.000000
vt 0.800000 1.000000
vt 0.900000 0.000000
vt 0.900000 1.000000
vt 1.000000 0.000000
vt 1.000000 1.000000
vn -0.7461 -0.0569 -0.6634
vn -0.7761 -0.0569 -0.6280
vn -0.6814 -0.0566 -0.7298
vn -0.6107 -0.0564 -0.7899
vn -0.5348 -0.0561 -0.8431
vn -0.4542 -0.0558 -0.8891
vn -0.3697 -0.0556 -0.9275
vn -0.2821 -0.0553 -0.9578
vn -0.1919 -0.0551 -0.9799
vn -0.0977 -0.0548 -0.9937
vn -0.0490 -0.0546 -0.9973
vn 0.0948 -0.0543 -0.9940
vn 0.0485 -0.0544 -0.9973
vn 0.1866 -0.0541 -0.9809
vn 0.1867 -0.0541 -0.9809
vn 0.2769 -0.0538 -0.9594
vn 0.3647 -0.0536 -0.9296
vn 0.4494 -0.0533 -0.8917
vn 0.4495 -0.0533 -0.8917
vn 0.5303 -0.0531 -0.8462
vn 0.6065 -0.0528 -0.7933
vn 0.6775 -0.0526 -0.7336
vn 0.7427 -0.0524 -0.6676
vn 0.7729 -0.0522 -0.6323
usemtl None
s 1
f 1/1/1 2/2/1 3/3/2 4/4/2
f 5/5/3 6/6/3 2/2/1 1/1/1
f 7/7/4 8/8/4 6/6/3 5/5/3
f 9/9/5 10/10/5 8/8/4 7/7/4
f 11/11/6 12/12/6 10/10/5 9/9/5
f 13/13/7 14/14/7 12/12/6 11/11/6
f 15/15/8 16/16/8 14/14/7 13/13/7
f 17/17/9 18/18/9 16/16/8 15/15/8
f 19/19/10 20/20/10 18/18/9 17/17/9
f 21/21/11 22/22/11 20/20/10 19/19/10
f 23/23/12 24/24/12 25/25/13 26/26/13
f 27/27/14 28/28/15 24/24/12 23/23/12
f 29/29/16 30/30/16 28/28/15 27/27/14
f 31/31/17 32/32/17 30/30/16 29/29/16
f 33/33/18 34/34/19 32/32/17 31/31/17
f 35/35/20 36/36/20 34/34/19 33/33/18
f 37/37/21 38/38/21 36/36/20 35/35/20
f 39/39/22 40/40/22 38/38/21 37/37/21
f 41/41/23 42/42/23 40/40/22 39/39/22
f 43/43/24 44/44/24 42/42/23 41/41/23
